HIERARCHY
ROOT Hips
{
  OFFSET 53.3465 96.2024 -6.11515
  CHANNELS 6 Xposition Yposition Zposition Zrotation Xrotation Yrotation
  JOINT spine
  {
    OFFSET 0 7.96568 0.458067
    CHANNELS 3 Zrotation Xrotation Yrotation
    JOINT spine1
    {
      OFFSET 0 10.2431 0
      CHANNELS 3 Zrotation Xrotation Yrotation
      JOINT spine2
      {
        OFFSET 0 9.81475 0
        CHANNELS 3 Zrotation Xrotation Yrotation
        JOINT Neck
        {
          OFFSET 0 25.1986 1.20138
          CHANNELS 3 Zrotation Xrotation Yrotation
          JOINT Head
          {
            OFFSET 0 7.61315 0
            CHANNELS 3 Zrotation Xrotation Yrotation
            End Site
            {
              OFFSET 0 18.4281 -6.07733
            }
          }
        }
        JOINT RightShoulder
        {
          OFFSET -4.1327 10.5992 -0.575451
          CHANNELS 3 Zrotation Xrotation Yrotation
          JOINT RightArm
          {
            OFFSET 0 13.9018 0
            CHANNELS 3 Zrotation Xrotation Yrotation
            JOINT RightArmRoll
            {
              OFFSET 0 7.01788 0
              CHANNELS 3 Zrotation Xrotation Yrotation
              JOINT RightForeArm
              {
                OFFSET 0 20.4406 0
                CHANNELS 3 Zrotation Xrotation Yrotation
                JOINT RightForeArmRoll
                {
                  OFFSET 0 7.87515 0
                  CHANNELS 3 Zrotation Xrotation Yrotation
                  JOINT RightHand
                  {
                    OFFSET 0 15.8037 0
                    CHANNELS 3 Zrotation Xrotation Yrotation
                    End Site
                    {
                      OFFSET 0 0 0
                    }
                  }
                }
              }
            }
          }
        }
        JOINT LeftShoulder
        {
          OFFSET 4.1327 10.5992 -0.575451
          CHANNELS 3 Zrotation Xrotation Yrotation
          JOINT LeftArm
          {
            OFFSET 0 13.9018 0
            CHANNELS 3 Zrotation Xrotation Yrotation
            JOINT LeftArmRoll
            {
              OFFSET 0 7.01788 0
              CHANNELS 3 Zrotation Xrotation Yrotation
              JOINT LeftForeArm
              {
                OFFSET 0 20.4406 0
                CHANNELS 3 Zrotation Xrotation Yrotation
                JOINT LeftForeArmRoll
                {
                  OFFSET 0 7.87515 0
                  CHANNELS 3 Zrotation Xrotation Yrotation
                  JOINT LeftHand
                  {
                    OFFSET 0 15.8037 0
                    CHANNELS 3 Zrotation Xrotation Yrotation
                    End Site
                    {
                      OFFSET 0 0 0
                    }
                  }
                }
              }
            }
          }
        }
      }
    }
  }
  JOINT RightUpLeg
  {
    OFFSET -7.06048 -1.2947 -1.0861
    CHANNELS 3 Zrotation Xrotation Yrotation
    JOINT RightUpLegRoll
    {
      OFFSET 0 18.5308 0
      CHANNELS 3 Zrotation Xrotation Yrotation
      JOINT RightLeg
      {
        OFFSET 0 -22.9476 0
        CHANNELS 3 Zrotation Xrotation Yrotation
        JOINT RightLegRoll
        {
          OFFSET 0 23.0226 0
          CHANNELS 3 Zrotation Xrotation Yrotation
          JOINT RightFoot
          {
            OFFSET 0 19.1625 0
            CHANNELS 3 Zrotation Xrotation Yrotation
            JOINT RightToeBase
            {
              OFFSET 0 16.0188 0
              CHANNELS 3 Zrotation Xrotation Yrotation
              End Site
              {
                OFFSET 0.00678979 7.75781 -0.894207
              }
            }
          }
        }
      }
    }
  }
  JOINT LeftUpLeg
  {
    OFFSET 7.06048 -1.2947 -1.0861
    CHANNELS 3 Zrotation Xrotation Yrotation
    JOINT LeftUpLegRoll
    {
      OFFSET 0 18.5309 0
      CHANNELS 3 Zrotation Xrotation Yrotation
      JOINT LeftLeg
      {
        OFFSET 0 22.9475 0
        CHANNELS 3 Zrotation Xrotation Yrotation
        JOINT LeftLegRoll
        {
          OFFSET 0 23.2355 0
          CHANNELS 3 Zrotation Xrotation Yrotation
          JOINT LeftFoot
          {
            OFFSET 0 18.9496 0
            CHANNELS 3 Zrotation Xrotation Yrotation
            JOINT LeftToeBase
            {
              OFFSET 0 16.0188 0
              CHANNELS 3 Zrotation Xrotation Yrotation
              End Site
              {
                OFFSET -0.0304289 7.75781 -0.894207
              }
            }
          }
        }
      }
    }
  }
}
MOTION
Frames: 6
Frame Time: 0.00208333
55.9985 96.9028 6.68793 -0.0342359 -4.66408 0.239855 0.180627 -0.236108 -0.251277 0.375626 3.52974 -0.534191 0.382138 5.17477 -0.541103 -7.29313 12.0898 4.1115 1.25312 7.84514 2.2996 72.6023 -3.18405 -3.09011 101.388 28.3745 -2.55506 2.28771e-005 -7.83978e-007 1.09539e-006 14.6704 8.8348 -1.72087 -6.13869e-006 -1.72473e-006 -3.00662 8.0289 -4.95144 0.697678 -66.1102 -2.76275 2.35791 -106.318 20.3324 0.614896 -7.68059e-006 -2.55235e-006 -1.90569e-006 -10.9242 6.01525 1.19896 9.89251e-006 -1.39278e-006 3 -8.0289 -4.95144 -0.697663 175.084 -2.99801 3.71713 180 7.01491e-015 178.703 179.388 7.20747 179.509 2.79087e-006 2.9299e-007 0.0558282 -18.2507 67.2139 18.8805 8.13369 25.2328 -3.48654 -173.574 -1.6295 -2.33177 4.5067e-006 -1.99009e-005 -1.20552 -1.86651 -7.44397 0.0593348 4.36697e-006 2.1791e-006 -0.11266 19.0926 68.3135 -19.8042 -8.13019 25.233 3.48505 
55.9971 96.901 6.67823 -0.0319751 -4.64024 0.241874 0.180626 -0.231585 -0.251163 0.375716 3.53879 -0.53331 0.382233 5.18381 -0.540221 -7.30925 12.0259 4.11521 1.31499 7.83193 2.30555 72.5624 -3.18301 -3.0866 101.451 28.3267 -2.55267 2.28771e-005 -7.83978e-007 1.09539e-006 14.6354 8.9533 -1.739 -6.13869e-006 -1.72473e-006 -3.00662 8.0289 -4.95144 0.697678 -66.142 -2.77845 2.36891 -106.268 20.2349 0.646041 -7.68059e-006 -2.55235e-006 -1.90569e-006 -10.9805 6.27306 1.23081 9.89251e-006 -1.39278e-006 3 -8.0289 -4.95144 -0.697663 175.09 -2.93992 3.70134 180 7.01491e-015 178.704 179.404 7.26156 179.506 2.79087e-006 2.9299e-007 0.0565837 -18.2547 67.2189 18.8847 8.13369 25.2328 -3.48654 -173.581 -1.58119 -2.3221 4.5067e-006 -1.99009e-005 -1.20513 -1.8598 -7.47765 0.0604397 4.36697e-006 2.1791e-006 -0.113213 19.0947 68.3159 -19.8064 -8.13019 25.233 3.48505 
55.9953 96.8967 6.68507 -0.0298882 -4.61665 0.243726 0.180626 -0.226988 -0.251094 0.375849 3.54798 -0.532497 0.382369 5.19301 -0.539407 -7.32515 11.9614 4.11888 1.37645 7.81853 2.31152 72.522 -3.1821 -3.0831 101.515 28.2794 -2.54775 2.28771e-005 -7.83978e-007 1.09539e-006 14.5981 9.06979 -1.75678 -6.13869e-006 -1.72473e-006 -3.00662 8.0289 -4.95144 0.697678 -66.1745 -2.79388 2.37983 -106.216 20.1359 0.676714 -7.68059e-006 -2.55235e-006 -1.90569e-006 -11.0381 6.53222 1.2628 9.89251e-006 -1.39278e-006 3 -8.0289 -4.95144 -0.697663 175.096 -2.88224 3.68573 180 7.01492e-015 178.705 179.419 7.31526 179.503 2.79087e-006 2.9299e-007 0.0573441 -18.2588 67.2241 18.8892 8.13369 25.2328 -3.48654 -173.588 -1.53338 -2.31233 4.5067e-006 -1.99009e-005 -1.20475 -1.85287 -7.51092 0.0615587 4.36697e-006 2.1791e-006 -0.113775 19.0972 68.3187 -19.8091 -8.13019 25.233 3.48505 
55.9967 96.8974 6.67258 -0.0279235 -4.59321 0.245462 0.180626 -0.222338 -0.251056 0.37601 3.55728 -0.531732 0.382535 5.20231 -0.538642 -7.34088 11.8963 4.12251 1.43763 7.805 2.31751 72.4813 -3.18127 -3.07963 101.579 28.2324 -2.54105 2.28771e-005 -7.83978e-007 1.09539e-006 14.5594 9.18486 -1.77431 -6.13869e-006 -1.72473e-006 -3.00662 8.0289 -4.95144 0.697678 -66.2073 -2.80912 2.3907 -106.163 20.0361 0.707046 -7.68059e-006 -2.55235e-006 -1.90569e-006 -11.0967 6.79231 1.29491 9.89251e-006 -1.39278e-006 3 -8.0289 -4.95144 -0.697663 175.103 -2.82484 3.67025 180 7.01492e-015 178.706 179.435 7.36874 179.499 2.79087e-006 2.9299e-007 0.0581082 -18.263 67.2296 18.8938 8.13369 25.2328 -3.48654 -173.594 -1.48591 -2.30249 4.5067e-006 -1.99009e-005 -1.20437 -1.84579 -7.54392 0.0626877 4.36697e-006 2.1791e-006 -0.114342 19.1 68.3219 -19.812 -8.13019 25.233 3.48505 
55.9957 96.8912 6.67595 -0.0260291 -4.56987 0.247132 0.180626 -0.217659 -0.251037 0.376188 3.56664 -0.530993 0.382718 5.21167 -0.537904 -7.35651 11.831 4.12613 1.49865 7.79139 2.32351 72.4405 -3.18048 -3.07616 101.643 28.1856 -2.53333 2.28771e-005 -7.83978e-007 1.09539e-006 14.5199 9.29913 -1.79171 -6.13869e-006 -1.72473e-006 -3.00662 8.0289 -4.95144 0.697678 -66.2404 -2.82426 2.40153 -106.109 19.9357 0.737168 -7.68059e-006 -2.55235e-006 -1.90569e-006 -11.1561 7.05294 1.32712 9.89251e-006 -1.39278e-006 3 -8.0289 -4.95144 -0.697663 175.109 -2.76761 3.65486 180 7.01492e-015 178.707 179.45 7.42203 179.496 2.79087e-006 2.9299e-007 0.0588742 -18.2674 67.2351 18.8985 8.13369 25.2328 -3.48654 -173.601 -1.43865 -2.29262 4.5067e-006 -1.99009e-005 -1.204 -1.83863 -7.57675 0.0638226 4.36697e-006 2.1791e-006 -0.114913 19.1029 68.3253 -19.8151 -8.13019 25.233 3.48505 
55.9934 96.8906 6.66666 -0.0241532 -4.54655 0.248786 0.180626 -0.212972 -0.251022 0.376369 3.57601 -0.530262 0.382904 5.22104 -0.537172 -7.37211 11.7656 4.12974 1.55963 7.77776 2.3295 72.3995 -3.17971 -3.0727 101.708 28.1389 -2.52538 2.28771e-005 -7.83978e-007 1.09539e-006 14.4802 9.41319 -1.80909 -6.13869e-006 -1.72473e-006 -3.00662 8.0289 -4.95144 0.697678 -66.2736 -2.83937 2.41236 -106.055 19.8351 0.76721 -7.68059e-006 -2.55235e-006 -1.90569e-006 -11.2159 7.31369 1.3594 9.89251e-006 -1.39278e-006 3 -8.0289 -4.95144 -0.697663 175.115 -2.71042 3.63948 180 7.01492e-015 178.708 179.465 7.47533 179.493 2.79087e-006 2.9299e-007 0.0596407 -18.2717 67.2406 18.9032 8.13369 25.2328 -3.48654 -173.607 -1.39144 -2.28274 4.5067e-006 -1.99009e-005 -1.20362 -1.83145 -7.60954 0.064959 4.36697e-006 2.1791e-006 -0.115485 19.1059 68.3288 -19.8183 -8.13019 25.233 3.48505 
